# AST/ASF file generated using VICON BodyLanguage
# -----------------------------------------------
:version 1.10
:name VICON
:units
  mass 1.0
  length 0.45
  angle deg
:documentation
   .ast/.asf automatically generated from VICON data using
   VICON BodyBuilder and BodyLanguage model FoxedUp or BRILLIANT.MOD
:root
   order TX TY TZ RX RY RZ
   axis XYZ
   position 0 0 0  
   orientation 0 0 0 
:bonedata
  begin
     id 1 
     name lhipjoint
     direction 0.64773 -0.699417 0.302095 
     length 2.48597 
     axis 0 0 0  XYZ
  end
  begin
     id 2 
     name lfemur
     direction 0.34202 -0.939693 0  
     length 6.71947  
     axis 0 0 20  XYZ
    dof rx ry rz
    limits (-160.0 20.0)
           (-70.0 70.0)
           (-60.0 70.0)
  end
  begin
     id 3 
     name ltibia
     direction 0.34202 -0.939693 0   
     length 8.08777   
     axis 0 0 20   XYZ
    dof rx
    limits (-10.0 170.0)
  end
  begin
     id 4 
     name lfoot
     direction 0.0808503 -0.222134 0.971658   
     length 2.08264   
     axis -90 7.62852e-016 20   XYZ
    dof rx rz
    limits (-45.0 90.0)
           (-70.0 20.0)
  end
  begin
     id 5 
     name ltoes
     direction 1.53502e-011 -4.22007e-011 1   
     length 1.04662   
     axis -90 7.62852e-016 20   XYZ
    dof rx
    limits (-90.0 20.0)
  end
  begin
     id 6 
     name rhipjoint
     direction -0.610924 -0.726792 0.313919   
     length 2.39233  
     axis 0 0 0  XYZ 
  end
  begin
     id 7 
     name rfemur
     direction -0.34202 -0.939693 0   
     length 6.96955   
     axis 0 0 -20   XYZ
    dof rx ry rz
    limits (-160.0 20.0)
           (-70.0 70.0)
           (-70.0 60.0)
  end
  begin
     id 8 
     name rtibia
     direction -0.34202 -0.939693 0   
     length 8.19584   
     axis 0 0 -20   XYZ
    dof rx
    limits (-10.0 170.0)
 end
 begin
     id 9 
     name rfoot
     direction -0.077777 -0.213691 0.9738   
     length 2.07539  
     axis -90 -7.62852e-016 -20   XYZ
    dof rx rz
    limits (-45.0 90.0)
           (-20.0 70.0)
  end
  begin
     id 10 
     name rtoes
     direction -1.53558e-011 -4.22006e-011 1   
     length 1.04381   
     axis -90 -7.62852e-016 -20   XYZ
    dof rx
    limits (-90.0 20.0)
  end
  begin
     id 11 
     name lowerback
     direction -0.00971646 0.996074 0.0879841   
     length 1.67643   
     axis 0 0 0   XYZ
    dof rx ry rz
    limits (-20.0 45.0)
           (-30.0 30.0)
           (-30.0 30.0)
  end
  begin
     id 12 
     name upperback
     direction 0.0127391 0.991676 0.128127   
     length 1.63741   
     axis 0 0 0   XYZ
    dof rx ry rz
    limits (-20.0 45.0)
           (-30.0 30.0)
           (-30.0 30.0)
  end
  begin
     id 13 
     name thorax
     direction 0.0167583 0.996049 0.0872067   
     length 1.65931   
     axis 0 0 0   XYZ
    dof rx ry rz
    limits (-20.0 45.0)
           (-30.0 30.0)
           (-30.0 30.0)
  end
  begin
     id 14 
     name lowerneck
     direction -0.0317829 0.998312 0.0486079   
     length 1.79021   
     axis 0 0 0   XYZ
    dof rx ry rz
    limits (-20.0 45.0)
           (-30.0 30.0)
           (-30.0 30.0)
  end
  begin
     id 15 
     name upperneck
     direction 0.0896851 0.972452 -0.215159   
     length 1.78797   
     axis 0 0 0   XYZ
    dof rx ry rz
    limits (-20.0 45.0)
           (-30.0 30.0)
           (-30.0 30.0)
  end
  begin
     id 16
     name head
     direction 0.0310949 0.996503 -0.0775582  
     length 1.81549  
     axis 0 0 0   XYZ
    dof rx ry rz
    limits (-20.0 45.0)
           (-30.0 30.0)
           (-30.0 30.0)
  end
  begin
     id 17 
     name lclavicle
     direction 0.853638 0.502051 -0.138733  
     length 3.31627  
     axis 0 0 0   XYZ
    dof ry rz
    limits (-20.0 10.0)
           (0.0 20.0)
  end
  begin
     id 18 
     name lhumerus
     direction 1 -4.48962e-011 -1.41788e-018   
     length 5.54893   
     axis 180 -30 -90   XYZ
    dof rx ry rz
    limits (-60.0 90.0)
           (-90.0 90.0)
           (-90.0 90.0)
  end
  begin
     id 19
     name lradius
     direction 1 -4.48962e-011 -4.95754e-027   
     length 3.02898   
     axis 180 -30 -90   XYZ
    dof rx
    limits (-10.0 170.0)
  end
  begin
     id 20
     name lwrist
     direction 1 -4.48952e-011 -1.03764e-026   
     length 1.51449   
     axis 9.09556e-015 90 90   XYZ
    dof ry
    limits (-180.0 0.0)
 end
  begin
     id 21 
     name lhand
     direction 1 -4.4902e-011 -2.07528e-026   
     length 0.640951   
     axis 1.3242e-014 90 90   XYZ
    dof rx rz
    limits (-90.0 90.0)
           (-45.0 45.0)
  end
  begin
     id 22 
     name lfingers
     direction 1 -4.49014e-011 -4.15056e-026   
     length 0.516751   
     axis 2.64841e-014 90 90   XYZ
    dof rx
    limits (0.0 90.0)
  end
  begin
     id 23
     name lthumb
     direction 0.707107 -6.35008e-011 0.707107   
     length 0.741954   
     axis -90 45 2.85299e-015   XYZ
    dof rx rz
    limits (-45.0 45.0)
           (-45.0 45.0)
  end
  begin
     id 24 
     name rclavicle
     direction -0.888531 0.455324 -0.0565039   
     length 3.20126  
     axis 0 0 0   XYZ 
    dof ry rz
    limits (-10.0 20.0)
           (-20.0 0.0)
  end
  begin
     id 25 
     name rhumerus
     direction -1 -4.48946e-011 -8.98298e-028  
     length 5.3519   
     axis 180 30 90   XYZ
    dof rx ry rz
    limits (-90.0 60.0)
           (-90.0 90.0)
           (-90.0 90.0)
  end
  begin
     id 26 
     name rradius
     direction -1 -4.4899e-011 -3.18779e-027   
     length 3.02531   
     axis 180 30 90   XYZ
    dof rx
    limits (-10.0 170.0)
  end
  begin
     id 27 
     name rwrist
     direction -1 -4.4897e-011 -1.03764e-026   
     length 1.51266   
     axis 9.09556e-015 -90 -90   XYZ
    dof ry
    limits (-180.0 0.0)
  end
  begin
     id 28
     name rhand
     direction -1 -4.48941e-011 -2.07528e-026   
     length 0.78389   
     axis 1.3242e-014 -90 -90   XYZ
    dof rx rz
    limits (-90.0 90.0)
           (-45.0 45.0)
  end
  begin
     id 29
     name rfingers
     direction -1 -4.49012e-011 -4.15056e-026   
     length 0.631992   
     axis 2.64841e-014 -90 -90   XYZ
    dof rx
    limits (0.0 90.0)
  end
  begin
     id 30
     name rthumb
     direction -0.707107 -6.3496e-011 0.707107   
     length 0.907418   
     axis -90 -45 -2.85299e-015   XYZ
    dof rx rz
    limits (-45.0 45.0)
           (-45.0 45.0)
  end
:hierarchy
  begin
    root lhipjoint rhipjoint lowerback
    lhipjoint lfemur
    lfemur ltibia
    ltibia lfoot
    lfoot ltoes
    rhipjoint rfemur
    rfemur rtibia
    rtibia rfoot
    rfoot rtoes
    lowerback upperback
    upperback thorax
    thorax lowerneck lclavicle rclavicle
    lowerneck upperneck
    upperneck head
    lclavicle lhumerus
    lhumerus lradius
    lradius lwrist
    lwrist lhand lthumb
    lhand lfingers
    rclavicle rhumerus
    rhumerus rradius
    rradius rwrist
    rwrist rhand rthumb
    rhand rfingers
  end

#!OML:ASF E:\Style3\Style3.ASF
:FULLY-SPECIFIED
:DEGREES
1603
root 1.16469 17.7327 0.668669 -195.579 81.6955 151.011
lowerback -13.4026 -2.96162 7.1129
upperback -9.81548 -3.95764 2.56168
thorax -3.24436 -2.00668 -1.6933
lowerneck -11.1921 0.0638997 -2.56937
upperneck 27.6253 3.25338 -6.35123
head 10.8385 0.78068 -1.38363
rclavicle -9.14409e-015 -1.59028e-014
rhumerus -102.454 41.87 -121.478
rradius 109.904
rwrist -3.78951
rhand -7.99286 33.2084
rfingers 7.12502
rthumb 17.9157 4.01357
lclavicle -9.14409e-015 -1.59028e-014
lhumerus -10.2347 32.3837 2.06647
lradius 82.787
lwrist -4.92229
lhand 31.478 41.4561
lfingers 7.12502
lthumb 55.0306 59.5726
rfemur -8.39087 13.7755 16.237
rtibia 16.4635
rfoot -23.2837 -30.106
rtoes -6.7002
lfemur -3.44043 -27.8159 -17.9043
ltibia 2.06736e-014
lfoot -9.08295 25.5282
ltoes -17.9279
1604
root 1.16045 17.7347 0.676098 -194.544 81.6928 152.041
lowerback -13.3113 -2.93644 7.09317
upperback -9.83561 -3.91482 2.47962
thorax -3.31581 -1.98971 -1.75849
lowerneck -11.0598 0.0518519 -2.55302
upperneck 27.5397 3.23966 -6.4156
head 10.7811 0.774643 -1.41029
rclavicle -5.12864e-014 7.95139e-015
rhumerus -102.512 41.627 -121.538
rradius 109.776
rwrist -3.86342
rhand -8.17743 33.298
rfingers 7.12502
rthumb 17.7381 4.08702
lclavicle -5.12864e-014 7.95139e-015
lhumerus -10.0534 32.4373 2.17978
lradius 82.6333
lwrist -4.89173
lhand 31.2883 41.7314
lfingers 7.12502
lthumb 54.8613 59.9699
rfemur -8.31319 13.669 16.4087
rtibia 16.2779
rfoot -23.237 -29.9974
rtoes -6.65779
lfemur -3.50018 -27.8512 -17.6979
ltibia 1.11319e-014
lfoot -9.02972 25.5474
ltoes -17.9332
1605
root 1.1575 17.7353 0.684431 -193.331 81.7008 153.228
lowerback -13.2366 -2.90991 7.05952
upperback -9.80318 -3.87812 2.40056
thorax -3.32 -1.97384 -1.8167
lowerneck -11.2482 0.0248103 -2.5402
upperneck 27.5843 3.22141 -6.45321
head 10.8362 0.756614 -1.42905
rclavicle -6.52014e-014 4.6118e-014
rhumerus -102.433 41.5091 -121.518
rradius 109.682
rwrist -3.9972
rhand -8.24157 33.3096
rfingers 7.12502
rthumb 17.6764 4.09306
lclavicle -6.52014e-014 4.6118e-014
lhumerus -9.81496 32.6276 2.27242
lradius 82.4711
lwrist -4.84392
lhand 31.1405 41.9606
lfingers 7.12502
lthumb 54.7293 60.2933
rfemur -8.2496 13.6001 16.6062
rtibia 16.0693
rfoot -23.2083 -29.9223
rtoes -6.51589
lfemur -3.54351 -27.8808 -17.492
ltibia 1.59028e-015
lfoot -8.7803 25.6931
ltoes -18.8582
1606
root 1.15475 17.7355 0.694125 -191.944 81.7276 154.596
lowerback -13.1427 -2.94083 6.98132
upperback -9.72528 -3.91774 2.38952
thorax -3.28207 -1.99125 -1.78677
lowerneck -11.7222 0.0672628 -2.55752
upperneck 27.7529 3.32846 -6.47028
head 10.9987 0.784354 -1.42104
rclavicle 1.55052e-014 1.74931e-014
rhumerus -102.382 41.7116 -121.611
rradius 109.525
rwrist -4.12386
rhand -8.37527 33.5686
rfingers 7.12502
rthumb 17.5477 4.34054
lclavicle 1.55052e-014 1.74931e-014
lhumerus -9.85697 32.8906 2.14202
lradius 82.3646
lwrist -4.61128
lhand 30.9896 41.9125
lfingers 7.12502
lthumb 54.5944 60.3405
rfemur -8.1798 13.5165 16.835
rtibia 15.8294
rfoot -22.999 -29.8322
rtoes -6.59468
lfemur -3.59153 -27.8927 -17.2454
ltibia 7.95139e-015
lfoot -8.56437 25.8156
ltoes -19.5504
1607
root 1.15025 17.7363 0.70518 -190.769 81.7497 155.761
lowerback -13.0438 -2.95568 6.85838
upperback -9.66625 -3.92966 2.35074
thorax -3.26305 -1.99397 -1.75779
lowerneck -12.0187 0.0997326 -2.64241
upperneck 27.8218 3.39768 -6.41229
head 11.0849 0.803256 -1.37737
rclavicle 4.77083e-014 -7.95139e-015
rhumerus -102.378 41.8954 -121.804
rradius 109.315
rwrist -4.25637
rhand -8.52613 33.6464
rfingers 7.12502
rthumb 17.4025 4.40546
lclavicle 4.77083e-014 -7.95139e-015
lhumerus -9.80344 33.1643 2.09754
lradius 82.232
lwrist -4.42553
lhand 31.1543 41.7008
lfingers 7.12502
lthumb 54.7416 60.0248
rfemur -8.09814 13.3312 17.0421
rtibia 15.578
rfoot -22.7072 -29.7095
rtoes -6.87379
lfemur -3.67499 -27.8913 -16.9594
ltibia -9.54166e-015
lfoot -8.91537 25.6961
ltoes -18.4071
1608
root 1.14672 17.7366 0.716355 -189.57 81.7475 156.942
lowerback -12.9771 -2.96853 6.70849
upperback -9.66435 -3.93084 2.28522
thorax -3.28767 -1.99093 -1.74037
lowerneck -12.0116 0.112695 -2.76242
upperneck 27.7723 3.40873 -6.30512
head 11.0614 0.809093 -1.31569
rclavicle 1.39149e-014 -3.97569e-014
rhumerus -102.505 41.9686 -122.121
rradius 109.099
rwrist -4.39449
rhand -8.63597 33.6098
rfingers 7.12502
rthumb 17.2968 4.3595
lclavicle 1.39149e-014 -3.97569e-014
lhumerus -9.63482 33.3674 2.13862
lradius 82.0309
lwrist -4.45039
lhand 31.3811 41.7073
lfingers 7.12502
lthumb 54.9442 59.8862
rfemur -8.00016 13.2723 17.2501
rtibia 15.3189
rfoot -22.6181 -29.6452
rtoes -6.74816
lfemur -3.76052 -27.9096 -16.67
ltibia -1.11319e-014
lfoot -9.22205 25.5689
ltoes -17.2946
